<svg id="Camada_1" data-name="Camada 1" xmlns="http://www.w3.org/2000/svg" viewBox="0 0 1000 1000"><defs><style>.cls-1{fill:#05c982;}</style></defs><title>VM Creative Studio - Icone </title><path class="cls-1" d="M186.88,184H98.65a16.1,16.1,0,0,0-13.79,24.41L486.47,875a16.11,16.11,0,0,0,27.58,0l45.08-74.82"/><path class="cls-1" d="M895,184H815.56a1,1,0,0,0-.86.48L545,632.18a1,1,0,0,0,0,1l56.49,93.86a1,1,0,0,0,1.71,0l309-512.75A20,20,0,0,0,895,184Z"/><path class="cls-1" d="M268.76,185l232,385,232-385ZM499.5,385A51.5,51.5,0,1,1,551,333.5,51.5,51.5,0,0,1,499.5,385Z"/></svg>